# File produced by Open Asset Import Library (http://www.assimp.sf.net)
# (assimp v3.1.179037358)

mtllib Protagonist.mtl

# 48 vertex positions
v  -0.0855965 0.174657 0.287424
v  0.0754431 0.174657 0.287424
v  0.0754431 0.174657 0.224576
v  -0.0855965 0.174657 0.224576
v  -0.0441842 -0.0888799 0.287424
v  0.0340308 -0.0888799 0.287424
v  0.108367 -0.061429 0.287424
v  -0.11852 -0.061429 0.287424
v  0.065707 -0.174658 0.287424
v  0.065707 -0.174658 0.224576
v  0.140043 -0.147207 0.224576
v  0.140043 -0.147207 0.287424
v  0.0340308 -0.0888799 0.224576
v  -0.0441842 -0.0888799 0.224576
v  -0.11852 -0.061429 0.224576
v  0.108367 -0.061429 0.224576
v  -0.0756347 -0.174046 0.224576
v  -0.0756347 -0.174046 0.287424
v  -0.149971 -0.146596 0.287424
v  -0.149971 -0.146596 0.224576
v  0.108367 0.00725143 0.287424
v  -0.11852 0.00725143 0.287424
v  0.108367 0.00725143 0.224576
v  -0.11852 0.00725143 0.224576
v  0.202287 0.0939671 0.287424
v  -0.212441 0.0939671 0.287424
v  0.196539 -0.0536773 0.275894
v  0.196539 -0.0536773 0.236106
v  0.256 0.00122188 0.236106
v  0.256 0.00122188 0.275894
v  -0.212441 0.0939671 0.224576
v  0.202287 0.0939671 0.224576
v  -0.197202 -0.0427333 0.236327
v  -0.197202 -0.0427333 0.275673
v  -0.256 0.0115542 0.275673
v  -0.256 0.0115542 0.236327
v  0.0754431 0.0939671 0.224576
v  0.0754431 0.0939671 0.287424
v  -0.0855965 0.0939671 0.287424
v  -0.0855965 0.0939671 0.224576
v  0.125597 0.0231597 0.236106
v  0.125597 0.0231597 0.275894
v  0.185057 0.0780589 0.236106
v  0.185057 0.0780589 0.275894
v  -0.136081 0.0234656 0.275673
v  -0.136081 0.0234656 0.236327
v  -0.194879 0.0777531 0.275673
v  -0.194879 0.0777531 0.236327

# 144 UV coordinates
vt 0.42646 0.528071 0
vt 0.590655 0.528071 0
vt 0.590655 0.59215 0
vt 0.42646 0.59215 0
vt 0.468248 0.231778 0
vt 0.550689 0.231778 0
vt 0.629041 0.260712 0
vt 0.389896 0.260712 0
vt 0.573954 0.124098 0
vt 0.610268 0.0422261 0
vt 0.713061 0.0878195 0
vt 0.676747 0.169691 0
vt 0.553131 0.889668 0
vt 0.47069 0.889668 0
vt 0.392337 0.860734 0
vt 0.631483 0.860734 0
vt 0.409416 0.0566356 0
vt 0.438444 0.12966 0
vt 0.346758 0.166106 0
vt 0.317731 0.0930808 0
vt 0.629041 0.333103 0
vt 0.389896 0.333103 0
vt 0.645623 0.259369 0
vt 0.712214 0.259621 0
vt 0.711938 0.332391 0
vt 0.645348 0.332139 0
vt 0.392337 0.788342 0
vt 0.631483 0.788342 0
vt 0.310686 0.258995 0
vt 0.377928 0.259401 0
vt 0.377484 0.332884 0
vt 0.310242 0.332477 0
vt 0.728036 0.424504 0
vt 0.290901 0.424504 0
vt 0.883783 0.568746 0
vt 0.883783 0.575743 0
vt 0.869563 0.575743 0
vt 0.869563 0.568746 0
vt 0.293343 0.696941 0
vt 0.730478 0.696941 0
vt 0.107447 0.575431 0
vt 0.107447 0.566584 0
vt 0.125428 0.566584 0
vt 0.125428 0.575431 0
vt 0.81974 0.531084 0
vt 0.81974 0.59137 0
vt 0.698067 0.59137 0
vt 0.698067 0.531084 0
vt 0.195853 0.590737 0
vt 0.195853 0.531814 0
vt 0.314777 0.531814 0
vt 0.314777 0.590737 0
vt 0.424599 0.424504 0
vt 0.594339 0.424504 0
vt 0.594339 0.509554 0
vt 0.424599 0.509554 0
vt 0.681638 0.528481 0
vt 0.681638 0.590857 0
vt 0.601553 0.590857 0
vt 0.601553 0.528481 0
vt 0.59678 0.696941 0
vt 0.42704 0.696941 0
vt 0.42704 0.611892 0
vt 0.59678 0.611892 0
vt 0.331327 0.591592 0
vt 0.331327 0.529523 0
vt 0.411016 0.529523 0
vt 0.411016 0.591592 0
vt 0.551397 0.20672 0
vt 0.519101 0.194587 0
vt 0.536694 0.147759 0
vt 0.56899 0.159892 0
vt 0.66487 0.951146 0
vt 0.586518 0.98008 0
vt 0.641234 0.853496 0
vt 0.704396 0.819661 0
vt 0.753455 0.911246 0
vt 0.690293 0.94508 0
vt 0.584077 0.141365 0
vt 0.662429 0.170299 0
vt 0.499733 0.195868 0
vt 0.467431 0.208121 0
vt 0.44979 0.161616 0
vt 0.482093 0.149363 0
vt 0.356746 0.170944 0
vt 0.435098 0.14201 0
vt 0.314516 0.818231 0
vt 0.385258 0.847923 0
vt 0.342511 0.949767 0
vt 0.271769 0.920074 0
vt 0.43754 0.979436 0
vt 0.359188 0.950502 0
vt 0.547974 0.955414 0
vt 0.474509 0.955414 0
vt 0.474509 0.896384 0
vt 0.547974 0.896384 0
vt 0.944549 0.531131 0
vt 0.944549 0.588328 0
vt 0.923224 0.577835 0
vt 0.923224 0.541624 0
vt 0.828304 0.588328 0
vt 0.84963 0.577835 0
vt 0.828304 0.531131 0
vt 0.84963 0.541624 0
vt 0.887659 0.54392 0
vt 0.896183 0.544021 0
vt 0.895917 0.566407 0
vt 0.887393 0.566305 0
vt 0.89918 0.544624 0
vt 0.91692 0.544378 0
vt 0.917239 0.567302 0
vt 0.899499 0.567548 0
vt 0.857699 0.54453 0
vt 0.866222 0.544495 0
vt 0.866315 0.566882 0
vt 0.85779 0.566917 0
vt 0.868079 0.544016 0
vt 0.885821 0.544089 0
vt 0.885726 0.567015 0
vt 0.867984 0.566942 0
vt 0.0654658 0.589205 0
vt 0.0654658 0.530588 0
vt 0.087741 0.541548 0
vt 0.087741 0.578245 0
vt 0.184597 0.530588 0
vt 0.162322 0.541548 0
vt 0.184597 0.589205 0
vt 0.162322 0.578245 0
vt 0.0965505 0.544737 0
vt 0.105342 0.544866 0
vt 0.105048 0.564984 0
vt 0.096256 0.564855 0
vt 0.107431 0.545058 0
vt 0.124728 0.544701 0
vt 0.12513 0.564176 0
vt 0.107833 0.564532 0
vt 0.127198 0.544873 0
vt 0.135709 0.544819 0
vt 0.135831 0.564293 0
vt 0.12732 0.564347 0
vt 0.137755 0.545081 0
vt 0.155055 0.544959 0
vt 0.155191 0.564437 0
vt 0.137891 0.564558 0

# 42 vertex normals
vn 0 1 0
vn 0 0 1
vn 0.346416 -0.938081 0
vn -1.02527e-08 0 -1
vn 0 0 -1
vn -1.13209e-08 0 -1
vn -0.346416 -0.938081 0
vn 0.979612 0.200898 0
vn 1 0 0
vn -0.979738 0.200285 0
vn -1 0 0
vn 0.678364 -0.734726 0
vn -0.678364 -0.734726 0
vn -0.938081 -0.346416 0
vn -2.91265e-08 0 -1
vn -2.91265e-08 0 -1
vn 0.938081 0.346416 0
vn 0.938081 -0.346416 0
vn -0.93808 0.346417 0
vn 0 -1 0
vn 0.678364 -0.734726 -2.71397e-07
vn 0.678364 -0.734726 4.52329e-08
vn 0.678364 -0.734726 1.20217e-07
vn 0.678364 -0.734726 -7.21301e-07
vn 0.678364 -0.734726 4.52329e-08
vn 0.678364 -0.734726 1.20217e-07
vn 0.678364 -0.734726 -2.71397e-07
vn 0.678364 -0.734726 -7.21301e-07
vn -0.734726 -0.678364 0
vn 0.734726 0.678364 0
vn 1.24682e-08 0 1
vn 1.24682e-08 0 1
vn -0.678364 -0.734726 0
vn -0.678364 -0.734726 4.45719e-08
vn -0.678364 -0.734726 1.18461e-07
vn -0.678364 -0.734726 0
vn -0.678364 -0.734726 4.45723e-08
vn -0.678364 -0.734726 1.18461e-07
vn -0.678364 -0.734726 0
vn -0.678364 -0.734726 0
vn 0.734726 -0.678364 0
vn -0.734725 0.678365 0

# Mesh 'node_id4_node_id4' with 88 faces
g node_id4_node_id4
usemtl Material_50
f  1/1/1 2/2/1 3/3/1
f  3/3/1 4/4/1 1/1/1
f  5/5/2 6/6/2 7/7/2
f  7/7/2 8/8/2 5/5/2
f  9/9/3 10/10/3 11/11/3
f  11/11/3 12/12/3 9/9/3
f  13/13/4 14/14/5 15/15/5
f  15/15/5 16/16/6 13/13/4
f  17/17/7 18/18/7 19/19/7
f  19/19/7 20/20/7 17/17/7
f  8/8/2 7/7/2 21/21/2
f  21/21/2 22/22/2 8/8/2
f  7/23/8 16/24/8 23/25/9
f  23/25/9 21/26/9 7/23/8
f  16/16/6 15/15/5 24/27/5
f  24/27/5 23/28/5 16/16/6
f  15/29/10 8/30/10 22/31/11
f  22/31/11 24/32/11 15/29/10
f  22/22/2 21/21/2 25/33/2
f  25/33/2 26/34/2 22/22/2
f  27/35/12 28/36/12 29/37/12
f  29/37/12 30/38/12 27/35/12
f  23/28/5 24/27/5 31/39/5
f  31/39/5 32/40/5 23/28/5
f  33/41/13 34/42/13 35/43/13
f  35/43/13 36/44/13 33/41/13
f  25/45/1 32/46/1 37/47/1
f  37/47/1 38/48/1 25/45/1
f  31/49/1 26/50/1 39/51/1
f  39/51/1 40/52/1 31/49/1
f  39/53/2 38/54/2 2/55/2
f  2/55/2 1/56/2 39/53/2
f  38/57/9 37/58/9 3/59/9
f  3/59/9 2/60/9 38/57/9
f  37/61/5 40/62/5 4/63/5
f  4/63/5 3/64/5 37/61/5
f  40/65/11 39/66/11 1/67/11
f  1/67/11 4/68/11 40/65/11
f  6/69/14 13/70/14 10/71/14
f  10/71/14 9/72/14 6/69/14
f  13/13/4 16/16/6 11/73/15
f  11/73/15 10/74/16 13/13/4
f  16/75/8 7/76/8 12/77/17
f  12/77/17 11/78/17 16/75/8
f  7/7/2 6/6/2 9/79/2
f  9/79/2 12/80/2 7/7/2
f  14/81/18 5/82/18 18/83/18
f  18/83/18 17/84/18 14/81/18
f  5/5/2 8/8/2 19/85/2
f  19/85/2 18/86/2 5/5/2
f  8/87/10 15/88/10 20/89/19
f  20/89/19 19/90/19 8/87/10
f  15/15/5 14/14/5 17/91/5
f  17/91/5 20/92/5 15/15/5
f  6/93/20 5/94/20 14/95/20
f  14/95/20 13/96/20 6/93/20
f  21/97/21 23/98/22 41/99/23
f  41/99/23 42/100/24 21/97/21
f  23/98/22 32/101/25 43/102/26
f  43/102/26 41/99/23 23/98/22
f  32/101/25 25/103/27 44/104/28
f  44/104/28 43/102/26 32/101/25
f  25/103/27 21/97/21 42/100/24
f  42/100/24 44/104/28 25/103/27
f  42/105/29 41/106/29 28/107/29
f  28/107/29 27/108/29 42/105/29
f  41/109/5 43/110/5 29/111/5
f  29/111/5 28/112/5 41/109/5
f  43/113/30 44/114/30 30/115/30
f  30/115/30 29/116/30 43/113/30
f  44/117/31 42/118/32 27/119/31
f  27/119/31 30/120/32 44/117/31
f  24/121/33 22/122/34 45/123/35
f  45/123/35 46/124/36 24/121/33
f  22/122/34 26/125/37 47/126/38
f  47/126/38 45/123/35 22/122/34
f  26/125/37 31/127/39 48/128/40
f  48/128/40 47/126/38 26/125/37
f  31/127/39 24/121/33 46/124/36
f  46/124/36 48/128/40 31/127/39
f  46/129/41 45/130/41 34/131/41
f  34/131/41 33/132/41 46/129/41
f  45/133/2 47/134/2 35/135/2
f  35/135/2 34/136/2 45/133/2
f  47/137/42 48/138/42 36/139/42
f  36/139/42 35/140/42 47/137/42
f  48/141/5 46/142/5 33/143/5
f  33/143/5 36/144/5 48/141/5

